<svg xmlns="http://www.w3.org/2000/svg" width="1440" height="900"><path d="M730,462L730,353L680,453Z" fill="#a4676e" stroke="#a4676e" stroke-width="1.51"/><path d="M730,353L616,353L680,453Z" fill="#ad686e" stroke="#ad686e" stroke-width="1.51"/><path d="M616,353L530,426L680,453Z" fill="#b0686e" stroke="#b0686e" stroke-width="1.51"/><path d="M929,425L861,255L730,353Z" fill="#a6686e" stroke="#a6686e" stroke-width="1.51"/><path d="M730,353L582,208L616,353Z" fill="#bb686e" stroke="#bb686e" stroke-width="1.51"/><path d="M730,462L929,425L730,353Z" fill="#a0676e" stroke="#a0676e" stroke-width="1.51"/><path d="M616,353L512,230L530,426Z" fill="#bf696d" stroke="#bf696d" stroke-width="1.51"/><path d="M861,255L582,208L730,353Z" fill="#b7686e" stroke="#b7686e" stroke-width="1.51"/><path d="M730,462L906,580L929,425Z" fill="#94666f" stroke="#94666f" stroke-width="1.51"/><path d="M841,637L906,580L730,462Z" fill="#8f666f" stroke="#8f666f" stroke-width="1.51"/><path d="M841,637L730,462L643,690Z" fill="#91666f" stroke="#91666f" stroke-width="1.51"/><path d="M643,690L730,462L680,453Z" fill="#9c676e" stroke="#9c676e" stroke-width="1.51"/><path d="M582,208L512,230L616,353Z" fill="#c76a6d" stroke="#c76a6d" stroke-width="1.51"/><path d="M530,426L643,690L680,453Z" fill="#a3676e" stroke="#a3676e" stroke-width="1.51"/><path d="M366,394L450,506L530,426Z" fill="#bb686e" stroke="#bb686e" stroke-width="1.51"/><path d="M450,506L643,690L530,426Z" fill="#a9686e" stroke="#a9686e" stroke-width="1.51"/><path d="M929,425L994,305L861,255Z" fill="#a3686e" stroke="#a3686e" stroke-width="1.51"/><path d="M1059,322L994,305L929,425Z" fill="#9b676e" stroke="#9b676e" stroke-width="1.51"/><path d="M1126,499L1059,322L929,425Z" fill="#8f666f" stroke="#8f666f" stroke-width="1.51"/><path d="M841,637L927,648L906,580Z" fill="#84656f" stroke="#84656f" stroke-width="1.51"/><path d="M791,859L927,648L841,637Z" fill="#7d6570" stroke="#7d6570" stroke-width="1.51"/><path d="M450,506L543,702L643,690Z" fill="#a0686e" stroke="#a0686e" stroke-width="1.51"/><path d="M861,255L809,74L582,208Z" fill="#c2696d" stroke="#c2696d" stroke-width="1.51"/><path d="M582,208L534,102L512,230Z" fill="#d56a6d" stroke="#d56a6d" stroke-width="1.51"/><path d="M889,17L809,74L951,41Z" fill="#c56a6d" stroke="#c56a6d" stroke-width="1.51"/><path d="M361,288L366,394L530,426Z" fill="#c8696d" stroke="#c8696d" stroke-width="1.51"/><path d="M302,703L516,767L543,702Z" fill="#a0686f" stroke="#a0686f" stroke-width="1.51"/><path d="M512,230L361,288L530,426Z" fill="#ca6a6d" stroke="#ca6a6d" stroke-width="1.51"/><path d="M717,35L534,102L582,208Z" fill="#d76a6c" stroke="#d76a6c" stroke-width="1.51"/><path d="M951,41L809,74L861,255Z" fill="#c16a6d" stroke="#c16a6d" stroke-width="1.51"/><path d="M1126,499L929,425L906,580Z" fill="#89666f" stroke="#89666f" stroke-width="1.51"/><path d="M809,74L717,35L582,208Z" fill="#cf6a6d" stroke="#cf6a6d" stroke-width="1.51"/><path d="M384,91L361,288L512,230Z" fill="#dd6b6c" stroke="#dd6b6c" stroke-width="1.51"/><path d="M1059,322L1094,288L994,305Z" fill="#9e686e" stroke="#9e686e" stroke-width="1.51"/><path d="M1194,380L1094,288L1059,322Z" fill="#96676f" stroke="#96676f" stroke-width="1.51"/><path d="M543,702L516,767L643,690Z" fill="#95676f" stroke="#95676f" stroke-width="1.51"/><path d="M643,690L791,859L841,637Z" fill="#83656f" stroke="#83656f" stroke-width="1.51"/><path d="M302,703L543,702L450,506Z" fill="#ab696e" stroke="#ab696e" stroke-width="1.51"/><path d="M366,394L321,535L450,506Z" fill="#be696d" stroke="#be696d" stroke-width="1.51"/><path d="M244,569L321,535L171,329Z" fill="#ca6a6d" stroke="#ca6a6d" stroke-width="1.51"/><path d="M1132,597L1126,499L906,580Z" fill="#7f656f" stroke="#7f656f" stroke-width="1.51"/><path d="M809,74L762,-26L717,35Z" fill="#cd6a6d" stroke="#cd6a6d" stroke-width="1.51"/><path d="M951,41L861,255L994,305Z" fill="#b3696e" stroke="#b3696e" stroke-width="1.51"/><path d="M889,17L762,-26L809,74Z" fill="#c96a6d" stroke="#c96a6d" stroke-width="1.51"/><path d="M717,35L639,-32L534,102Z" fill="#d86a6d" stroke="#d86a6d" stroke-width="1.51"/><path d="M1101,60L951,41L994,305Z" fill="#b66a6d" stroke="#b66a6d" stroke-width="1.51"/><path d="M516,767L642,847L643,690Z" fill="#8e676f" stroke="#8e676f" stroke-width="1.51"/><path d="M762,-26L639,-32L717,35Z" fill="#d16a6d" stroke="#d16a6d" stroke-width="1.51"/><path d="M534,102L384,91L512,230Z" fill="#e06b6d" stroke="#e06b6d" stroke-width="1.51"/><path d="M416,0L384,91L534,102Z" fill="#e96b6c" stroke="#e96b6c" stroke-width="1.51"/><path d="M361,288L273,266L366,394Z" fill="#d76a6d" stroke="#d76a6d" stroke-width="1.51"/><path d="M642,847L791,859L643,690Z" fill="#81656f" stroke="#81656f" stroke-width="1.51"/><path d="M927,648L1132,597L906,580Z" fill="#7f656f" stroke="#7f656f" stroke-width="1.51"/><path d="M996,779L1132,597L927,648Z" fill="#76646f" stroke="#76646f" stroke-width="1.51"/><path d="M384,91L273,266L361,288Z" fill="#e36b6c" stroke="#e36b6c" stroke-width="1.51"/><path d="M791,859L996,779L927,648Z" fill="#756470" stroke="#756470" stroke-width="1.51"/><path d="M1094,288L1101,60L994,305Z" fill="#a8696e" stroke="#a8696e" stroke-width="1.51"/><path d="M1126,499L1194,380L1059,322Z" fill="#8b666f" stroke="#8b666f" stroke-width="1.51"/><path d="M1254,565L1194,380L1126,499Z" fill="#7c646f" stroke="#7c646f" stroke-width="1.51"/><path d="M996,779L1153,630L1132,597Z" fill="#716470" stroke="#716470" stroke-width="1.51"/><path d="M1132,597L1254,565L1126,499Z" fill="#776470" stroke="#776470" stroke-width="1.51"/><path d="M321,535L302,703L450,506Z" fill="#b6696e" stroke="#b6696e" stroke-width="1.51"/><path d="M171,329L321,535L366,394Z" fill="#cd6a6d" stroke="#cd6a6d" stroke-width="1.51"/><path d="M791,859L981,897L996,779Z" fill="#6f6470" stroke="#6f6470" stroke-width="1.51"/><path d="M642,847L782,901L791,859Z" fill="#7c656f" stroke="#7c656f" stroke-width="1.51"/><path d="M33,266L171,329L273,266Z" fill="#e56b6c" stroke="#e56b6c" stroke-width="1.51"/><path d="M454,-94L416,0L534,102Z" fill="#e86b6c" stroke="#e86b6c" stroke-width="1.51"/><path d="M516,767L571,975L642,847Z" fill="#8c666f" stroke="#8c666f" stroke-width="1.51"/><path d="M244,569L302,703L321,535Z" fill="#bb6a6e" stroke="#bb6a6e" stroke-width="1.51"/><path d="M1194,380L1173,167L1094,288Z" fill="#9a686f" stroke="#9a686f" stroke-width="1.51"/><path d="M1166,141L1101,60L1094,288Z" fill="#ac696e" stroke="#ac696e" stroke-width="1.51"/><path d="M951,41L1010,-98L889,17Z" fill="#c16a6d" stroke="#c16a6d" stroke-width="1.51"/><path d="M889,17L830,-195L762,-26Z" fill="#c96a6d" stroke="#c96a6d" stroke-width="1.51"/><path d="M1173,167L1166,141L1094,288Z" fill="#a5696e" stroke="#a5696e" stroke-width="1.51"/><path d="M273,266L171,329L366,394Z" fill="#db6a6c" stroke="#db6a6c" stroke-width="1.51"/><path d="M152,37L273,266L384,91Z" fill="#f46b6b" stroke="#f46b6b" stroke-width="1.51"/><path d="M996,779L1135,857L1153,630Z" fill="#686470" stroke="#686470" stroke-width="1.51"/><path d="M782,901L981,897L791,859Z" fill="#746470" stroke="#746470" stroke-width="1.51"/><path d="M1387,628L1254,565L1380,751Z" fill="#696470" stroke="#696470" stroke-width="1.51"/><path d="M1153,630L1254,565L1132,597Z" fill="#726470" stroke="#726470" stroke-width="1.51"/><path d="M1194,380L1308,212L1173,167Z" fill="#99686f" stroke="#99686f" stroke-width="1.51"/><path d="M160,-38L152,37L384,91Z" fill="#fd6b6b" stroke="#fd6b6b" stroke-width="1.51"/><path d="M639,-32L454,-94L534,102Z" fill="#e16b6c" stroke="#e16b6c" stroke-width="1.51"/><path d="M690,-219L454,-94L639,-32Z" fill="#dc6a6c" stroke="#dc6a6c" stroke-width="1.51"/><path d="M311,836L430,896L516,767Z" fill="#9c686e" stroke="#9c686e" stroke-width="1.51"/><path d="M642,847L585,997L782,901Z" fill="#83656f" stroke="#83656f" stroke-width="1.51"/><path d="M430,896L571,975L516,767Z" fill="#93676f" stroke="#93676f" stroke-width="1.51"/><path d="M887,1158L1048,946L981,897Z" fill="#6b6470" stroke="#6b6470" stroke-width="1.51"/><path d="M1159,-7L1010,-98L1101,60Z" fill="#b86b6d" stroke="#b86b6d" stroke-width="1.51"/><path d="M1101,60L1010,-98L951,41Z" fill="#bc6a6d" stroke="#bc6a6d" stroke-width="1.51"/><path d="M762,-26L690,-219L639,-32Z" fill="#d26a6d" stroke="#d26a6d" stroke-width="1.51"/><path d="M451,1060L585,997L571,975Z" fill="#90676f" stroke="#90676f" stroke-width="1.51"/><path d="M302,703L311,836L516,767Z" fill="#a4696e" stroke="#a4696e" stroke-width="1.51"/><path d="M220,745L311,836L302,703Z" fill="#ad6a6e" stroke="#ad6a6e" stroke-width="1.51"/><path d="M220,745L302,703L244,569Z" fill="#b86a6d" stroke="#b86a6d" stroke-width="1.51"/><path d="M157,724L220,745L244,569Z" fill="#bb6a6d" stroke="#bb6a6d" stroke-width="1.51"/><path d="M571,975L585,997L642,847Z" fill="#8a666f" stroke="#8a666f" stroke-width="1.51"/><path d="M451,1060L571,975L430,896Z" fill="#95686f" stroke="#95686f" stroke-width="1.51"/><path d="M1166,141L1159,-7L1101,60Z" fill="#b46b6e" stroke="#b46b6e" stroke-width="1.51"/><path d="M1339,72L1159,-7L1166,141Z" fill="#af6b6e" stroke="#af6b6e" stroke-width="1.51"/><path d="M1308,212L1166,141L1173,167Z" fill="#a4696e" stroke="#a4696e" stroke-width="1.51"/><path d="M1010,-98L830,-195L889,17Z" fill="#c36a6d" stroke="#c36a6d" stroke-width="1.51"/><path d="M981,897L1135,857L996,779Z" fill="#666370" stroke="#666370" stroke-width="1.51"/><path d="M1369,320L1308,212L1194,380Z" fill="#92676f" stroke="#92676f" stroke-width="1.51"/><path d="M830,-195L690,-219L762,-26Z" fill="#cd6a6d" stroke="#cd6a6d" stroke-width="1.51"/><path d="M981,897L1048,946L1135,857Z" fill="#656370" stroke="#656370" stroke-width="1.51"/><path d="M766,1050L981,897L782,901Z" fill="#746470" stroke="#746470" stroke-width="1.51"/><path d="M140,736L157,724L-1,722Z" fill="#b76a6e" stroke="#b76a6e" stroke-width="1.51"/><path d="M121,827L276,978L311,836Z" fill="#ad6a6e" stroke="#ad6a6e" stroke-width="1.51"/><path d="M585,997L766,1050L782,901Z" fill="#7f656f" stroke="#7f656f" stroke-width="1.51"/><path d="M1048,946L1180,863L1135,857Z" fill="#606370" stroke="#606370" stroke-width="1.51"/><path d="M1135,857L1180,863L1153,630Z" fill="#606370" stroke="#606370" stroke-width="1.51"/><path d="M830,-195L1097,-232L690,-219Z" fill="#c66a6d" stroke="#c66a6d" stroke-width="1.51"/><path d="M1010,-98L976,-191L830,-195Z" fill="#c26a6d" stroke="#c26a6d" stroke-width="1.51"/><path d="M1097,-232L976,-191L1010,-98Z" fill="#bc6a6d" stroke="#bc6a6d" stroke-width="1.51"/><path d="M1390,565L1369,320L1254,565Z" fill="#7a656f" stroke="#7a656f" stroke-width="1.51"/><path d="M1254,565L1369,320L1194,380Z" fill="#82656f" stroke="#82656f" stroke-width="1.51"/><path d="M157,724L140,736L220,745Z" fill="#b66a6e" stroke="#b66a6e" stroke-width="1.51"/><path d="M313,1046L451,1060L430,896Z" fill="#9e686e" stroke="#9e686e" stroke-width="1.51"/><path d="M1,497L157,724L244,569Z" fill="#c26a6d" stroke="#c26a6d" stroke-width="1.51"/><path d="M160,-38L384,91L416,0Z" fill="#f56b6c" stroke="#f56b6c" stroke-width="1.51"/><path d="M171,329L32,411L244,569Z" fill="#d26a6d" stroke="#d26a6d" stroke-width="1.51"/><path d="M160,-38L416,0L255,-195Z" fill="#f96b6b" stroke="#f96b6b" stroke-width="1.51"/><path d="M33,266L32,411L171,329Z" fill="#df6b6c" stroke="#df6b6c" stroke-width="1.51"/><path d="M690,-219L444,-221L454,-94Z" fill="#e26b6c" stroke="#e26b6c" stroke-width="1.51"/><path d="M1387,628L1390,565L1254,565Z" fill="#706470" stroke="#706470" stroke-width="1.51"/><path d="M152,37L33,266L273,266Z" fill="#f26b6c" stroke="#f26b6c" stroke-width="1.51"/><path d="M585,997L617,1105L766,1050Z" fill="#84656f" stroke="#84656f" stroke-width="1.51"/><path d="M276,978L430,896L311,836Z" fill="#a3696e" stroke="#a3696e" stroke-width="1.51"/><path d="M451,1060L617,1105L585,997Z" fill="#8e676f" stroke="#8e676f" stroke-width="1.51"/><path d="M1202,1053L1180,863L1048,946Z" fill="#5e6370" stroke="#5e6370" stroke-width="1.51"/><path d="M1380,751L1254,565L1153,630Z" fill="#696370" stroke="#696370" stroke-width="1.51"/><path d="M1159,-7L1097,-232L1010,-98Z" fill="#b86b6d" stroke="#b86b6d" stroke-width="1.51"/><path d="M1308,212L1339,72L1166,141Z" fill="#a86a6e" stroke="#a86a6e" stroke-width="1.51"/><path d="M1572,203L1339,72L1308,212Z" fill="#a56a6e" stroke="#a56a6e" stroke-width="1.51"/><path d="M1180,863L1380,751L1153,630Z" fill="#5e6370" stroke="#5e6370" stroke-width="1.51"/><path d="M1202,1053L1237,889L1180,863Z" fill="#596270" stroke="#596270" stroke-width="1.51"/><path d="M887,1158L981,897L766,1050Z" fill="#726470" stroke="#726470" stroke-width="1.51"/><path d="M152,37L50,34L33,266Z" fill="#fc6b6b" stroke="#fc6b6b" stroke-width="1.51"/><path d="M255,-195L416,0L454,-94Z" fill="#f06b6c" stroke="#f06b6c" stroke-width="1.51"/><path d="M32,411L1,497L244,569Z" fill="#cc6a6d" stroke="#cc6a6d" stroke-width="1.51"/><path d="M-13,383L1,497L32,411Z" fill="#d26a6d" stroke="#d26a6d" stroke-width="1.51"/><path d="M121,827L311,836L220,745Z" fill="#b06a6e" stroke="#b06a6e" stroke-width="1.51"/><path d="M121,827L220,745L140,736Z" fill="#b36b6e" stroke="#b36b6e" stroke-width="1.51"/><path d="M-1,722L121,827L140,736Z" fill="#b36b6e" stroke="#b36b6e" stroke-width="1.51"/><path d="M33,266L-13,383L32,411Z" fill="#dd6a6c" stroke="#dd6a6c" stroke-width="1.51"/><path d="M1387,628L1451,504L1390,565Z" fill="#726470" stroke="#726470" stroke-width="1.51"/><path d="M1390,565L1451,504L1369,320Z" fill="#7c656f" stroke="#7c656f" stroke-width="1.51"/><path d="M1369,320L1572,203L1308,212Z" fill="#9a686e" stroke="#9a686e" stroke-width="1.51"/><path d="M1263,-204L1097,-232L1159,-7Z" fill="#b26b6e" stroke="#b26b6e" stroke-width="1.51"/><path d="M976,-191L1097,-232L830,-195Z" fill="#c06b6d" stroke="#c06b6d" stroke-width="1.51"/><path d="M690,-219L318,-269L444,-221Z" fill="#e66b6c" stroke="#e66b6c" stroke-width="1.51"/><path d="M1237,889L1380,751L1180,863Z" fill="#576270" stroke="#576270" stroke-width="1.51"/><path d="M1535,705L1560,448L1451,504Z" fill="#736470" stroke="#736470" stroke-width="1.51"/><path d="M254,1114L313,1046L276,978Z" fill="#a96a6e" stroke="#a96a6e" stroke-width="1.51"/><path d="M276,978L313,1046L430,896Z" fill="#a3696e" stroke="#a3696e" stroke-width="1.51"/><path d="M451,1060L254,1114L617,1105Z" fill="#99686f" stroke="#99686f" stroke-width="1.51"/><path d="M444,-221L255,-195L454,-94Z" fill="#ef6b6c" stroke="#ef6b6c" stroke-width="1.51"/><path d="M20,-17L50,34L160,-38Z" fill="#ff6b6b" stroke="#ff6b6b" stroke-width="1.51"/><path d="M160,-38L50,34L152,37Z" fill="#ff6b6b" stroke="#ff6b6b" stroke-width="1.51"/><path d="M33,266L-114,177L-13,383Z" fill="#e76b6c" stroke="#e76b6c" stroke-width="1.51"/><path d="M617,1105L887,1158L766,1050Z" fill="#7b656f" stroke="#7b656f" stroke-width="1.51"/><path d="M254,1114L887,1158L617,1105Z" fill="#8b666f" stroke="#8b666f" stroke-width="1.51"/><path d="M1,497L-1,722L157,724Z" fill="#be6b6d" stroke="#be6b6d" stroke-width="1.51"/><path d="M127,1016L254,1114L276,978Z" fill="#af6a6e" stroke="#af6a6e" stroke-width="1.51"/><path d="M-205,546L-1,722L1,497Z" fill="#c36a6d" stroke="#c36a6d" stroke-width="1.51"/><path d="M40,-180L20,-17L160,-38Z" fill="#ff6b6b" stroke="#ff6b6b" stroke-width="1.51"/><path d="M444,-221L318,-269L255,-195Z" fill="#f36b6c" stroke="#f36b6c" stroke-width="1.51"/><path d="M1097,-232L318,-269L690,-219Z" fill="#d26a6d" stroke="#d26a6d" stroke-width="1.51"/><path d="M1237,889L1446,834L1380,751Z" fill="#576270" stroke="#576270" stroke-width="1.51"/><path d="M1033,1162L1202,1053L1048,946Z" fill="#626370" stroke="#626370" stroke-width="1.51"/><path d="M40,-180L160,-38L255,-195Z" fill="#ff6b6b" stroke="#ff6b6b" stroke-width="1.51"/><path d="M50,34L-70,125L33,266Z" fill="#f86b6c" stroke="#f86b6c" stroke-width="1.51"/><path d="M887,1158L1033,1162L1048,946Z" fill="#6a6470" stroke="#6a6470" stroke-width="1.51"/><path d="M1358,-126L1263,-204L1159,-7Z" fill="#af6b6e" stroke="#af6b6e" stroke-width="1.51"/><path d="M-13,383L-119,470L1,497Z" fill="#d06a6d" stroke="#d06a6d" stroke-width="1.51"/><path d="M20,-17L-70,125L50,34Z" fill="#ff6b6b" stroke="#ff6b6b" stroke-width="1.51"/><path d="M-218,425L-119,470L-13,383Z" fill="#d36a6d" stroke="#d36a6d" stroke-width="1.51"/><path d="M1339,72L1358,-126L1159,-7Z" fill="#af6b6e" stroke="#af6b6e" stroke-width="1.51"/><path d="M1546,33L1358,-126L1339,72Z" fill="#af6b6e" stroke="#af6b6e" stroke-width="1.51"/><path d="M1202,1053L1310,999L1237,889Z" fill="#576270" stroke="#576270" stroke-width="1.51"/><path d="M1535,705L1451,504L1387,628Z" fill="#6d6470" stroke="#6d6470" stroke-width="1.51"/><path d="M1443,958L1310,999L1439,1052Z" fill="#576270" stroke="#576270" stroke-width="1.51"/><path d="M313,1046L254,1114L451,1060Z" fill="#a3696e" stroke="#a3696e" stroke-width="1.51"/><path d="M127,1016L276,978L121,827Z" fill="#af6b6e" stroke="#af6b6e" stroke-width="1.51"/><path d="M121,1069L127,1016L-106,947Z" fill="#af6b6e" stroke="#af6b6e" stroke-width="1.51"/><path d="M-106,947L127,1016L121,827Z" fill="#af6b6e" stroke="#af6b6e" stroke-width="1.51"/><path d="M1451,504L1560,448L1369,320Z" fill="#81656f" stroke="#81656f" stroke-width="1.51"/><path d="M1535,705L1387,628L1380,751Z" fill="#646370" stroke="#646370" stroke-width="1.51"/><path d="M1310,999L1446,834L1237,889Z" fill="#576270" stroke="#576270" stroke-width="1.51"/><path d="M-70,125L-114,177L33,266Z" fill="#f26b6c" stroke="#f26b6c" stroke-width="1.51"/><path d="M-260,131L-114,177L-70,125Z" fill="#f86b6c" stroke="#f86b6c" stroke-width="1.51"/><path d="M1446,834L1535,705L1380,751Z" fill="#5d6370" stroke="#5d6370" stroke-width="1.51"/><path d="M1358,-126L1308,-240L1263,-204Z" fill="#af6b6e" stroke="#af6b6e" stroke-width="1.51"/><path d="M1263,-204L1308,-240L1097,-232Z" fill="#af6b6e" stroke="#af6b6e" stroke-width="1.51"/><path d="M1097,-232L1308,-240L318,-269Z" fill="#c46a6d" stroke="#c46a6d" stroke-width="1.51"/><path d="M1560,448L1572,203L1369,320Z" fill="#90676f" stroke="#90676f" stroke-width="1.51"/><path d="M1358,-126L1465,-228L1308,-240Z" fill="#af6b6e" stroke="#af6b6e" stroke-width="1.51"/><path d="M127,1016L121,1069L254,1114Z" fill="#af6b6e" stroke="#af6b6e" stroke-width="1.51"/><path d="M-85,812L121,827L-1,722Z" fill="#b16a6e" stroke="#b16a6e" stroke-width="1.51"/><path d="M20,-17L-93,-114L-70,125Z" fill="#ff6b6b" stroke="#ff6b6b" stroke-width="1.51"/><path d="M318,-269L40,-180L255,-195Z" fill="#ff6b6b" stroke="#ff6b6b" stroke-width="1.51"/><path d="M-268,718L-85,812L-1,722Z" fill="#b46b6e" stroke="#b46b6e" stroke-width="1.51"/><path d="M1572,203L1546,33L1339,72Z" fill="#ad6a6e" stroke="#ad6a6e" stroke-width="1.51"/><path d="M1572,203L1593,160L1546,33Z" fill="#a96a6e" stroke="#a96a6e" stroke-width="1.51"/><path d="M1703,263L1593,160L1572,203Z" fill="#9f696e" stroke="#9f696e" stroke-width="1.51"/><path d="M1703,263L1572,203L1560,448Z" fill="#92676f" stroke="#92676f" stroke-width="1.51"/><path d="M1446,834L1637,806L1535,705Z" fill="#5b6370" stroke="#5b6370" stroke-width="1.51"/><path d="M1310,999L1443,958L1446,834Z" fill="#576270" stroke="#576270" stroke-width="1.51"/><path d="M1439,1052L1310,999L1202,1053Z" fill="#576270" stroke="#576270" stroke-width="1.51"/><path d="M-119,470L-205,546L1,497Z" fill="#cb6a6d" stroke="#cb6a6d" stroke-width="1.51"/><path d="M-218,425L-205,546L-119,470Z" fill="#cd6a6d" stroke="#cd6a6d" stroke-width="1.51"/><path d="M-268,288L-218,425L-13,383Z" fill="#db6a6c" stroke="#db6a6c" stroke-width="1.51"/><path d="M40,-180L-93,-114L20,-17Z" fill="#ff6b6b" stroke="#ff6b6b" stroke-width="1.51"/><path d="M-114,177L-268,288L-13,383Z" fill="#e66b6c" stroke="#e66b6c" stroke-width="1.51"/><path d="M1614,903L1637,806L1446,834Z" fill="#576270" stroke="#576270" stroke-width="1.51"/><path d="M1512,1116L1439,1052L1202,1053Z" fill="#576270" stroke="#576270" stroke-width="1.51"/><path d="M-85,812L-106,947L121,827Z" fill="#af6b6e" stroke="#af6b6e" stroke-width="1.51"/><path d="M-231,948L-106,947L-85,812Z" fill="#af6b6e" stroke="#af6b6e" stroke-width="1.51"/><path d="M1571,-110L1358,-126L1546,33Z" fill="#af6b6e" stroke="#af6b6e" stroke-width="1.51"/><path d="M1571,-110L1465,-228L1358,-126Z" fill="#af6b6e" stroke="#af6b6e" stroke-width="1.51"/><path d="M40,-180L-82,-176L-93,-114Z" fill="#ff6b6b" stroke="#ff6b6b" stroke-width="1.51"/><path d="M-260,131L-268,288L-114,177Z" fill="#f06b6c" stroke="#f06b6c" stroke-width="1.51"/><path d="M318,-269L-82,-176L40,-180Z" fill="#ff6b6b" stroke="#ff6b6b" stroke-width="1.51"/><path d="M-260,131L-70,125L-250,-85Z" fill="#ff6b6b" stroke="#ff6b6b" stroke-width="1.51"/><path d="M-218,425L-268,718L-205,546Z" fill="#c66a6d" stroke="#c66a6d" stroke-width="1.51"/><path d="M1663,-53L1571,-110L1546,33Z" fill="#af6b6e" stroke="#af6b6e" stroke-width="1.51"/><path d="M1721,394L1703,263L1560,448Z" fill="#89666f" stroke="#89666f" stroke-width="1.51"/><path d="M1721,394L1560,448L1715,524Z" fill="#7d656f" stroke="#7d656f" stroke-width="1.51"/><path d="M1663,-53L1546,33L1593,160Z" fill="#af6b6e" stroke="#af6b6e" stroke-width="1.51"/><path d="M1614,903L1446,834L1443,958Z" fill="#576270" stroke="#576270" stroke-width="1.51"/><path d="M1715,524L1560,448L1535,705Z" fill="#726470" stroke="#726470" stroke-width="1.51"/><path d="M1684,704L1715,524L1535,705Z" fill="#6a6470" stroke="#6a6470" stroke-width="1.51"/><path d="M-250,-85L-70,125L-93,-114Z" fill="#ff6b6b" stroke="#ff6b6b" stroke-width="1.51"/><path d="M1637,806L1684,704L1535,705Z" fill="#5f6370" stroke="#5f6370" stroke-width="1.51"/><path d="M1512,1116L1614,903L1443,958Z" fill="#576270" stroke="#576270" stroke-width="1.51"/><path d="M1637,806L1614,903L1684,704Z" fill="#586270" stroke="#586270" stroke-width="1.51"/><path d="M-205,546L-268,718L-1,722Z" fill="#bc6a6d" stroke="#bc6a6d" stroke-width="1.51"/><path d="M-268,288L-268,718L-218,425Z" fill="#cd6a6d" stroke="#cd6a6d" stroke-width="1.51"/><path d="M-82,-176L-147,-168L-93,-114Z" fill="#ff6b6b" stroke="#ff6b6b" stroke-width="1.51"/><path d="M318,-269L-147,-168L-82,-176Z" fill="#ff6b6b" stroke="#ff6b6b" stroke-width="1.51"/><path d="M-268,718L-275,749L-85,812Z" fill="#b46b6e" stroke="#b46b6e" stroke-width="1.51"/><path d="M-268,288L-275,749L-268,718Z" fill="#c36a6d" stroke="#c36a6d" stroke-width="1.51"/><path d="M1721,394L1663,-53L1703,263Z" fill="#a0696e" stroke="#a0696e" stroke-width="1.51"/><path d="M1703,263L1663,-53L1593,160Z" fill="#aa6a6e" stroke="#aa6a6e" stroke-width="1.51"/><path d="M1571,-110L1610,-255L1465,-228Z" fill="#af6b6e" stroke="#af6b6e" stroke-width="1.51"/><path d="M1439,1052L1512,1116L1443,958Z" fill="#576270" stroke="#576270" stroke-width="1.51"/><path d="M1033,1162L1512,1116L1202,1053Z" fill="#576270" stroke="#576270" stroke-width="1.51"/><path d="M-106,947L-73,1159L121,1069Z" fill="#af6b6e" stroke="#af6b6e" stroke-width="1.51"/><path d="M121,1069L-73,1159L254,1114Z" fill="#af6b6e" stroke="#af6b6e" stroke-width="1.51"/><path d="M-231,948L-149,1042L-106,947Z" fill="#af6b6e" stroke="#af6b6e" stroke-width="1.51"/><path d="M-147,-168L-250,-85L-93,-114Z" fill="#ff6b6b" stroke="#ff6b6b" stroke-width="1.51"/><path d="M-260,131L-250,-85L-268,288Z" fill="#fc6b6b" stroke="#fc6b6b" stroke-width="1.51"/><path d="M-149,1042L-73,1159L-106,947Z" fill="#af6b6e" stroke="#af6b6e" stroke-width="1.51"/><path d="M254,1114L-73,1159L887,1158Z" fill="#a2696e" stroke="#a2696e" stroke-width="1.51"/><path d="M887,1158L-73,1159L1033,1162Z" fill="#88666f" stroke="#88666f" stroke-width="1.51"/><path d="M-149,1042L-231,948L-73,1159Z" fill="#af6b6e" stroke="#af6b6e" stroke-width="1.51"/><path d="M-275,749L-231,948L-85,812Z" fill="#af6b6e" stroke="#af6b6e" stroke-width="1.51"/><path d="M1663,-53L1610,-255L1571,-110Z" fill="#af6b6e" stroke="#af6b6e" stroke-width="1.51"/><path d="M1465,-228L1610,-255L1308,-240Z" fill="#af6b6e" stroke="#af6b6e" stroke-width="1.51"/><path d="M1308,-240L1610,-255L318,-269Z" fill="#b86b6d" stroke="#b86b6d" stroke-width="1.51"/><path d="M1512,1116L1591,1154L1614,903Z" fill="#576270" stroke="#576270" stroke-width="1.51"/><path d="M1614,903L1591,1154L1684,704Z" fill="#576270" stroke="#576270" stroke-width="1.51"/><path d="M1033,1162L1591,1154L1512,1116Z" fill="#576270" stroke="#576270" stroke-width="1.51"/></svg>