<svg xmlns="http://www.w3.org/2000/svg" viewBox="0 0 368 368" width="512" height="512"><g fill="#91DC5A"><path d="M248 112c-13.232 0-24 10.768-24 24s10.768 24 24 24 24-10.768 24-24-10.768-24-24-24zm0 32c-4.416 0-8-3.592-8-8s3.584-8 8-8 8 3.592 8 8-3.584 8-8 8zm-128 16c13.232 0 24-10.768 24-24s-10.768-24-24-24-24 10.768-24 24 10.768 24 24 24zm0-32c4.416 0 8 3.592 8 8s-3.584 8-8 8-8-3.592-8-8 3.584-8 8-8z"/><path d="M184 0C82.536 0 0 82.544 0 184s82.536 184 184 184 184-82.544 184-184S285.464 0 184 0zm0 352c-92.632 0-168-75.36-168-168S91.368 16 184 16s168 75.36 168 168-75.368 168-168 168z"/><path d="M264 208H104c-4.424 0-8 3.584-8 8 0 48.52 39.48 88 88 88s88-39.48 88-88c0-4.416-3.576-8-8-8zm-80 80c-37 0-67.56-28.048-71.552-64h143.104C251.56 259.952 221 288 184 288z"/></g></svg>