<?xml version="1.0" standalone="no"?>
<!DOCTYPE svg PUBLIC "-//W3C//DTD SVG 20010904//EN"
 "http://www.w3.org/TR/2001/REC-SVG-20010904/DTD/svg10.dtd">
<svg version="1.0" xmlns="http://www.w3.org/2000/svg"
 width="506.000000pt" height="506.000000pt" viewBox="0 0 506.000000 506.000000"
 preserveAspectRatio="xMidYMid meet">
<metadata>
Created by potrace 1.11, written by Peter Selinger 2001-2013
</metadata>
<g transform="translate(0.000000,506.000000) scale(0.100000,-0.100000)"
fill="#000000" stroke="none">
<path d="M2340 5003 c-293 -22 -627 -114 -892 -247 l-143 -71 -2 -1502 c-2
-827 1 -1503 5 -1503 4 0 632 625 1396 1389 l1390 1390 -25 21 c-72 62 -313
211 -444 276 -399 195 -844 280 -1285 247z"/>
<path d="M1015 4489 c-220 -172 -393 -358 -544 -584 -210 -315 -338 -647 -398
-1035 -25 -160 -24 -528 0 -690 90 -587 372 -1118 795 -1496 90 -80 234 -194
246 -194 3 0 6 916 6 2035 0 1119 -3 2035 -8 2035 -4 0 -48 -32 -97 -71z"/>
<path d="M3442 3557 l-783 -783 792 -1020 c436 -560 794 -1021 797 -1024 2 -3
42 36 89 85 363 388 589 865 664 1405 20 140 17 507 -4 645 -86 545 -305 995
-677 1388 -45 48 -85 87 -89 87 -3 0 -358 -352 -789 -783z"/>
<path d="M1912 2023 l-611 -618 2 -520 2 -520 141 -71 c226 -113 505 -197 784
-235 139 -20 496 -17 645 5 385 56 727 187 1045 402 164 110 195 137 184 156
-21 34 -1567 2018 -1573 2018 -4 0 -282 -278 -619 -617z"/>
</g>
</svg>
