<svg xmlns="http://www.w3.org/2000/svg" viewBox="0 0 368 368" width="512" height="512"><g fill="#ffb482"><path d="M184 0C82.544 0 0 82.544 0 184s82.544 184 184 184 184-82.544 184-184S285.456 0 184 0zm0 352c-92.64 0-168-75.36-168-168S91.36 16 184 16s168 75.36 168 168-75.36 168-168 168z"/><path d="M264 128c-22.056 0-40 17.944-40 40s17.944 40 40 40 40-17.944 40-40-17.944-40-40-40zm0 64c-13.232 0-24-10.768-24-24s10.768-24 24-24 24 10.768 24 24-10.768 24-24 24zm-120-24c0-22.056-17.944-40-40-40s-40 17.944-40 40 17.944 40 40 40 40-17.944 40-40zm-40 24c-13.232 0-24-10.768-24-24s10.768-24 24-24 24 10.768 24 24-10.768 24-24 24zm128 48h-96c-4.416 0-8 3.584-8 8s3.584 8 8 8h96c4.416 0 8-3.584 8-8s-3.584-8-8-8z"/></g></svg>